<?xml version="1.0" standalone="no"?>
<!DOCTYPE svg PUBLIC "-//W3C//DTD SVG 20010904//EN"
 "http://www.w3.org/TR/2001/REC-SVG-20010904/DTD/svg10.dtd">
<svg version="1.0" xmlns="http://www.w3.org/2000/svg"
 width="256.000000pt" height="256.000000pt" viewBox="0 0 256.000000 256.000000"
 preserveAspectRatio="xMidYMid meet">
<metadata>
Created by potrace 1.10, written by Peter Selinger 2001-2011
</metadata>
<g transform="translate(0.000000,256.000000) scale(0.100000,-0.100000)"
fill="#000000" stroke="none">
<path d="M1108 2374 c-97 -15 -240 -60 -320 -100 -159 -81 -340 -241 -433
-384 -282 -434 -233 -995 120 -1369 439 -464 1171 -464 1610 0 405 429 404
1095 -4 1522 -254 266 -612 388 -973 331z m344 -208 c184 -36 323 -111 463
-251 182 -182 265 -381 265 -635 0 -254 -83 -453 -265 -635 -182 -181 -382
-265 -635 -265 -253 0 -453 84 -635 265 -107 107 -167 198 -212 323 -87 239
-67 523 53 741 130 236 354 402 614 456 87 18 261 18 352 1z"/>
<path d="M830 1697 c-164 -38 -265 -158 -292 -344 -29 -201 55 -390 208 -463
152 -74 351 -35 434 84 44 65 61 138 58 252 l-3 99 -155 0 -155 0 -3 -77 -3
-78 76 0 75 0 -6 -27 c-20 -84 -55 -119 -127 -129 -96 -13 -184 61 -208 174
-27 133 13 277 93 330 76 50 177 31 216 -40 37 -66 32 -64 110 -28 84 38 88
51 43 122 -52 82 -128 123 -244 133 -34 2 -87 -1 -117 -8z"/>
<path d="M1574 1700 c-22 -5 -62 -18 -88 -31 -263 -123 -290 -586 -43 -756 65
-44 115 -57 217 -57 72 0 94 4 148 28 81 37 159 120 191 202 29 74 40 229 21
312 -48 217 -236 343 -446 302z m141 -169 c86 -40 129 -122 129 -252 0 -77 -3
-93 -32 -152 -53 -107 -140 -143 -232 -95 -173 89 -153 453 28 508 42 13 64
11 107 -9z"/>
</g>
</svg>
