<?xml version="1.0" encoding="UTF-8"?>
<svg version="1.1" xmlns="http://www.w3.org/2000/svg" width="256" height="256">
<path d="M0 0 C3.42493618 2.90863983 6.73133892 5.91749382 10 9 C10.67675781 9.61230469 11.35351562 10.22460938 12.05078125 10.85546875 C27.600717 25.47053862 37.38421126 45.69424389 43 66 C43.3403125 67.20011719 43.680625 68.40023437 44.03125 69.63671875 C51.46956986 101.4906348 44.80382748 135.3475257 28 163 C23.03629911 170.62738988 17.23389569 177.38963459 11 184 C10.38769531 184.67675781 9.77539062 185.35351562 9.14453125 186.05078125 C-5.47053862 201.600717 -25.69424389 211.38421126 -46 217 C-47.20011719 217.3403125 -48.40023437 217.680625 -49.63671875 218.03125 C-81.4906348 225.46956986 -115.3475257 218.80382748 -143 202 C-150.62738988 197.03629911 -157.38963459 191.23389569 -164 185 C-164.67675781 184.38769531 -165.35351562 183.77539062 -166.05078125 183.14453125 C-181.600717 168.52946138 -191.38421126 148.30575611 -197 128 C-197.3403125 126.79988281 -197.680625 125.59976563 -198.03125 124.36328125 C-205.46956986 92.5093652 -198.80382748 58.6524743 -182 31 C-177.03629911 23.37261012 -171.23389569 16.61036541 -165 10 C-164.38769531 9.32324219 -163.77539062 8.64648438 -163.14453125 7.94921875 C-148.52946138 -7.600717 -128.30575611 -17.38421126 -108 -23 C-106.79988281 -23.3403125 -105.59976563 -23.680625 -104.36328125 -24.03125 C-68.35132176 -32.44052919 -28.63779381 -23.16420937 0 0 Z M-160.375 21.03515625 C-182.95429342 46.53766177 -190.95421804 77.45096177 -189 111 C-188.32321331 117.18977831 -186.8890495 123.07695285 -185 129 C-184.78569336 129.68449219 -184.57138672 130.36898437 -184.35058594 131.07421875 C-175.39251953 158.87421524 -156.02809049 182.42725433 -130.23022461 196.23706055 C-123.92169058 199.46404954 -117.45382428 202.08734483 -110.75 204.375 C-110.05422852 204.61379883 -109.35845703 204.85259766 -108.64160156 205.09863281 C-81.33450917 213.89546304 -50.47833922 209.89217116 -25.140625 197.1171875 C3.54085988 181.80004576 21.98225761 156.984664 31.7734375 126.44921875 C37.46200851 106.88344717 37.1902072 84.40917325 31 65 C30.78569336 64.31550781 30.57138672 63.63101563 30.35058594 62.92578125 C21.39251953 35.12578476 2.02809049 11.57274567 -23.76977539 -2.23706055 C-30.07830942 -5.46404954 -36.54617572 -8.08734483 -43.25 -10.375 C-43.94577148 -10.61379883 -44.64154297 -10.85259766 -45.35839844 -11.09863281 C-55.64730609 -14.41314805 -65.9856487 -15.36887051 -76.75 -15.3125 C-78.45724243 -15.30404053 -78.45724243 -15.30404053 -80.19897461 -15.29541016 C-111.26448605 -14.84975762 -138.96087437 -1.15709895 -160.375 21.03515625 Z " fill="#000000" transform="translate(205,31)"/>
<path d="M0 0 C9.0962364 7.22400133 13.32712616 17.70485958 15 29 C16.29374257 44.35616176 14.04743791 58.56594447 4.40625 71.06640625 C-2.54475082 78.656768 -11.8743716 82.22536176 -22 83 C-33.44113404 83.11734496 -42.54442469 79.74051609 -51 72 C-60.97550886 61.10296607 -63.49266017 48.21097364 -63.24609375 33.80859375 C-62.43196913 21.2090461 -58.41124459 9.2036846 -48.91015625 0.49609375 C-34.06421639 -11.13170781 -15.09966964 -10.84271469 0 0 Z M-41.68359375 13.9375 C-48.04554729 23.90518982 -49.32427986 35.44829447 -47.5390625 46.9765625 C-45.53494679 55.34669281 -41.48797882 63.32001324 -34 68 C-28.60842645 70.39625491 -23.3627747 70.95345225 -17.69921875 69.34765625 C-10.12016045 66.3797225 -6.07810581 61.65269318 -2.6875 54.375 C1.90255573 43.64550264 1.17685433 30.80558557 -2.60546875 19.953125 C-5.52319804 13.77440416 -9.57549291 9.48164322 -15.375 5.9375 C-26.00121293 3.18934148 -34.74728035 5.16788306 -41.68359375 13.9375 Z " fill="#000000" transform="translate(191,90)"/>
<path d="M0 0 C4.33036704 3.57376016 7.22662337 7.31523858 9.5390625 12.421875 C9.5390625 13.741875 9.5390625 15.061875 9.5390625 16.421875 C7.94140147 17.28814899 6.33566306 18.13953965 4.7265625 18.984375 C3.83324219 19.46003906 2.93992188 19.93570313 2.01953125 20.42578125 C-0.4609375 21.421875 -0.4609375 21.421875 -3.4609375 20.421875 C-4.44027246 18.69171657 -5.4163454 16.95934187 -6.35546875 15.20703125 C-8.59606497 11.58882463 -11.50360277 9.74098658 -15.4609375 8.421875 C-22.53046728 7.72520082 -28.70960501 7.93179963 -34.4609375 12.421875 C-42.60235224 20.78532832 -44.81499282 31.04902421 -44.67578125 42.41796875 C-44.02825969 51.47149753 -41.67193419 60.73783303 -34.72265625 66.984375 C-29.03225369 71.2735007 -23.52133228 72.24500805 -16.4609375 71.421875 C-12.14928506 70.0957956 -9.20930991 68.23092625 -6.1484375 64.921875 C-3.72681362 59.89924769 -2.67029313 54.86397532 -1.4609375 49.421875 C-7.4009375 49.421875 -13.3409375 49.421875 -19.4609375 49.421875 C-19.4609375 45.131875 -19.4609375 40.841875 -19.4609375 36.421875 C-9.2309375 36.421875 0.9990625 36.421875 11.5390625 36.421875 C12.19827876 64.93297829 12.19827876 64.93297829 4.2890625 74.796875 C-3.60872608 82.89376749 -11.11751367 84.96999193 -22.4609375 85.421875 C-33.81272643 84.77433407 -42.73720403 80.8012463 -50.4609375 72.421875 C-59.76357848 59.7383645 -61.99339717 45.27895704 -60 29.85546875 C-57.93068967 18.76639989 -53.6946338 8.39723138 -44.4609375 1.421875 C-30.83312405 -6.94216763 -14.05666489 -9.01411526 0 0 Z " fill="#000000" transform="translate(110.4609375,87.578125)"/>
</svg>
