<?xml version="1.0" standalone="no"?>
<!DOCTYPE svg PUBLIC "-//W3C//DTD SVG 20010904//EN"
 "http://www.w3.org/TR/2001/REC-SVG-20010904/DTD/svg10.dtd">
<svg version="1.0" xmlns="http://www.w3.org/2000/svg"
 width="256.000000pt" height="256.000000pt" viewBox="0 0 256.000000 256.000000"
 preserveAspectRatio="xMidYMid meet">
<metadata>
Created by potrace 1.16, written by Peter Selinger 2001-2019
</metadata>
<g transform="translate(0.000000,256.000000) scale(0.100000,-0.100000)"
fill="#000000" stroke="none">
<path d="M1131 2479 c-188 -22 -415 -112 -566 -226 -163 -123 -284 -269 -371
-448 -290 -600 -39 -1322 561 -1611 528 -255 1155 -97 1506 381 29 39 76 120
105 180 290 600 39 1321 -561 1611 -212 103 -438 140 -674 113z m274 -130
c581 -71 1010 -604 946 -1175 -58 -514 -444 -902 -960 -965 -439 -53 -890 203
-1086 616 -281 593 47 1310 682 1490 149 42 270 52 418 34z"/>
<path d="M793 1706 c-135 -44 -222 -144 -258 -298 -53 -224 34 -452 203 -535
52 -26 67 -28 167 -28 100 0 115 2 161 27 107 56 153 148 161 326 l6 112 -157
0 -156 0 0 -65 0 -65 85 0 85 0 0 -32 c-1 -42 -23 -103 -47 -130 -25 -29 -91
-58 -133 -58 -106 0 -186 64 -221 180 -28 94 -24 228 11 307 28 66 94 128 152
143 89 24 205 -30 224 -105 3 -14 10 -25 15 -25 8 0 108 47 117 55 2 2 -7 23
-18 49 -26 54 -76 101 -139 129 -58 26 -197 33 -258 13z"/>
<path d="M1549 1705 c-108 -35 -201 -128 -239 -240 -27 -78 -37 -215 -21 -297
19 -97 63 -178 126 -236 73 -67 140 -92 248 -92 170 1 284 83 348 249 26 69
37 230 20 311 -26 127 -107 238 -210 286 -70 33 -200 42 -272 19z m216 -139
c79 -47 126 -151 127 -281 2 -194 -87 -319 -227 -320 -79 0 -130 26 -173 89
-48 72 -65 142 -60 250 5 108 30 175 87 230 72 70 161 81 246 32z"/>
</g>
</svg>
